HIERARCHY
ROOT Hips
{
  OFFSET -5.66989 14.5892 -1.04108
  CHANNELS 6 Xposition Yposition Zposition Zrotation Xrotation Yrotation
  JOINT Bip01_Pelvis
  {
    OFFSET 0 0 0
    CHANNELS 6 Xposition Yposition Zposition Zrotation Xrotation Yrotation
    JOINT BN_Tail_01
    {
      OFFSET -1.93658 -0.0537033 0
      CHANNELS 6 Xposition Yposition Zposition Zrotation Xrotation Yrotation
      JOINT BN_Tail_02
      {
        OFFSET 3.80098 0 0
        CHANNELS 6 Xposition Yposition Zposition Zrotation Xrotation Yrotation
        JOINT BN_Tail_03
        {
          OFFSET 4.13452 0 0
          CHANNELS 6 Xposition Yposition Zposition Zrotation Xrotation Yrotation
          End Site
          {
            OFFSET 0 0 0
          }
        }
      }
    }
    JOINT Bip01_Spine
    {
      OFFSET 2.49484 0.4396 -0.350589
      CHANNELS 6 Xposition Yposition Zposition Zrotation Xrotation Yrotation
      JOINT Bip01_R_Thigh
      {
        OFFSET -2.36788 -0.528529 -2.17686
        CHANNELS 6 Xposition Yposition Zposition Zrotation Xrotation Yrotation
        JOINT Bip01_R_Calf
        {
          OFFSET 7.16877 0 0
          CHANNELS 6 Xposition Yposition Zposition Zrotation Xrotation Yrotation
          JOINT Bip01_R_HorseLink
          {
            OFFSET 5.71658 0 0
            CHANNELS 6 Xposition Yposition Zposition Zrotation Xrotation Yrotation
            JOINT Bip01_R_Foot
            {
              OFFSET 4.09528 0 0
              CHANNELS 6 Xposition Yposition Zposition Zrotation Xrotation Yrotation
              JOINT Bip01_R_Toe3
              {
                OFFSET 0.688901 -0.165618 -0.0515646
                CHANNELS 6 Xposition Yposition Zposition Zrotation Xrotation Yrotation
                JOINT Bip01_R_Toe3Nub
                {
                  OFFSET 2.31698 0 0
                  CHANNELS 6 Xposition Yposition Zposition Zrotation Xrotation Yrotation
                  End Site
                  {
                    OFFSET 0 0 0
                  }
                }
              }
              JOINT Bip01_R_Toe2
              {
                OFFSET 0.917067 0.515958 -0.245308
                CHANNELS 6 Xposition Yposition Zposition Zrotation Xrotation Yrotation
                JOINT Bip01_R_Toe2Nub
                {
                  OFFSET 2.54684 0 0
                  CHANNELS 6 Xposition Yposition Zposition Zrotation Xrotation Yrotation
                  End Site
                  {
                    OFFSET 0 0 0
                  }
                }
              }
              JOINT Bip01_R_Toe1
              {
                OFFSET 0.948626 0.783529 0.204368
                CHANNELS 6 Xposition Yposition Zposition Zrotation Xrotation Yrotation
                JOINT Bip01_R_Toe1Nub
                {
                  OFFSET 2.98415 0 0
                  CHANNELS 6 Xposition Yposition Zposition Zrotation Xrotation Yrotation
                  End Site
                  {
                    OFFSET 0 0 0
                  }
                }
              }
              JOINT Bip01_R_Toe0
              {
                OFFSET 0.945014 0.361084 0.455508
                CHANNELS 6 Xposition Yposition Zposition Zrotation Xrotation Yrotation
                JOINT Bip01_R_Toe0Nub
                {
                  OFFSET 2.53654 0 0
                  CHANNELS 6 Xposition Yposition Zposition Zrotation Xrotation Yrotation
                  End Site
                  {
                    OFFSET 0 0 0
                  }
                }
              }
            }
          }
        }
      }
      JOINT Bip01_L_Thigh
      {
        OFFSET -2.59706 -0.617793 2.62045
        CHANNELS 6 Xposition Yposition Zposition Zrotation Xrotation Yrotation
        JOINT Bip01_L_Calf
        {
          OFFSET 7.16876 0 0
          CHANNELS 6 Xposition Yposition Zposition Zrotation Xrotation Yrotation
          JOINT Bip01_L_HorseLink
          {
            OFFSET 5.71658 0 0
            CHANNELS 6 Xposition Yposition Zposition Zrotation Xrotation Yrotation
            JOINT Bip01_L_Foot
            {
              OFFSET 4.09528 0 0
              CHANNELS 6 Xposition Yposition Zposition Zrotation Xrotation Yrotation
              JOINT Bip01_L_Toe3
              {
                OFFSET 0.688902 -0.165618 0.0515647
                CHANNELS 6 Xposition Yposition Zposition Zrotation Xrotation Yrotation
                JOINT Bip01_L_Toe3Nub
                {
                  OFFSET 2.31698 0 0
                  CHANNELS 6 Xposition Yposition Zposition Zrotation Xrotation Yrotation
                  End Site
                  {
                    OFFSET 0 0 0
                  }
                }
              }
              JOINT Bip01_L_Toe2
              {
                OFFSET 0.917065 0.515959 0.245311
                CHANNELS 6 Xposition Yposition Zposition Zrotation Xrotation Yrotation
                JOINT Bip01_L_Toe2Nub
                {
                  OFFSET 2.54684 0 0
                  CHANNELS 6 Xposition Yposition Zposition Zrotation Xrotation Yrotation
                  End Site
                  {
                    OFFSET 0 0 0
                  }
                }
              }
              JOINT Bip01_L_Toe1
              {
                OFFSET 0.948627 0.78353 -0.204366
                CHANNELS 6 Xposition Yposition Zposition Zrotation Xrotation Yrotation
                JOINT Bip01_L_Toe1Nub
                {
                  OFFSET 2.98415 0 0
                  CHANNELS 6 Xposition Yposition Zposition Zrotation Xrotation Yrotation
                  End Site
                  {
                    OFFSET 0 0 0
                  }
                }
              }
              JOINT Bip01_L_Toe0
              {
                OFFSET 0.945014 0.361085 -0.455508
                CHANNELS 6 Xposition Yposition Zposition Zrotation Xrotation Yrotation
                JOINT Bip01_L_Toe0Nub
                {
                  OFFSET 2.53654 0 0
                  CHANNELS 6 Xposition Yposition Zposition Zrotation Xrotation Yrotation
                  End Site
                  {
                    OFFSET 0 0 0
                  }
                }
              }
            }
          }
        }
      }
      JOINT Bip01_Spine1
      {
        OFFSET 3.72608 -0.00323868 0.000187963
        CHANNELS 6 Xposition Yposition Zposition Zrotation Xrotation Yrotation
        JOINT BN_Finger_R_01
        {
          OFFSET 3.00123 -0.0843508 -4.58748
          CHANNELS 6 Xposition Yposition Zposition Zrotation Xrotation Yrotation
          JOINT BN_Finger_R_02
          {
            OFFSET 5.88015 0 0
            CHANNELS 6 Xposition Yposition Zposition Zrotation Xrotation Yrotation
            End Site
            {
              OFFSET 0 0 0
            }
          }
        }
        JOINT BN_Finger_L_01
        {
          OFFSET 3.00122 -0.0843704 4.58724
          CHANNELS 6 Xposition Yposition Zposition Zrotation Xrotation Yrotation
          JOINT BN_Finger_L_02
          {
            OFFSET 5.88015 0 0
            CHANNELS 6 Xposition Yposition Zposition Zrotation Xrotation Yrotation
            End Site
            {
              OFFSET 0 0 0
            }
          }
        }
        JOINT Bip01_Neck
        {
          OFFSET 4.13883 -0.0022707 1.01402e-005
          CHANNELS 6 Xposition Yposition Zposition Zrotation Xrotation Yrotation
          JOINT Bip01_Neck1
          {
            OFFSET 3.21838 -0.00219488 -2.03252e-005
            CHANNELS 6 Xposition Yposition Zposition Zrotation Xrotation Yrotation
            JOINT Bip01_Neck2
            {
              OFFSET 3.42188 -0.00260592 1.77622e-005
              CHANNELS 6 Xposition Yposition Zposition Zrotation Xrotation Yrotation
              JOINT Bip01_Head
              {
                OFFSET 3.32298 0 0
                CHANNELS 6 Xposition Yposition Zposition Zrotation Xrotation Yrotation
                JOINT BN_Mouth_01
                {
                  OFFSET 1.65821 0.977865 2.28871e-005
                  CHANNELS 6 Xposition Yposition Zposition Zrotation Xrotation Yrotation
                  End Site
                  {
                    OFFSET 0 0 0
                  }
                }
                JOINT Bip01_HeadNub
                {
                  OFFSET 4.48783 0 0
                  CHANNELS 6 Xposition Yposition Zposition Zrotation Xrotation Yrotation
                  End Site
                  {
                    OFFSET 0 0 0
                  }
                }
              }
            }
          }
        }
      }
    }
  }
}
MOTION
Frames:	4
Frame Time:	0.0333333
-3.37174 12.9706 0 -102.731 -87.5121 -11.6535 9.53674e-007 -5.55112e-017 0 -90 -12.9386 -90 -1.93658 -0.0537062 -2.5034e-006 16.5059 0.0861128 -177.71 3.80098 0 1.11022e-016 -7.94086 -0.170335 2.40594 4.13452 -9.53674e-007 2.22045e-016 -8.89184 0.0801844 -0.0493603 2.49328 -0.57574 -5.06639e-006 2.90093 0.150032 0.464716 -2.44137 0.694888 -2.42351 -146.236 -1.24402 175.902 7.16876 0 -4.44089e-016 -109.956 -4.17573e-006 4.87269e-006 5.71658 -4.76837e-007 2.38419e-007 65.9818 1.24985e-005 -3.84506e-006 4.09528 -8.88179e-016 -2.38419e-007 5.60546 -6.425 3.02747 0.688901 -0.165616 -0.0515647 106.878 -3.13916 169.769 2.31699 -2.38419e-007 -4.44089e-016 -3.33719e-007 -8.40209e-008 1.39871e-007 0.917067 0.515958 -0.245308 78.1916 -4.23678 22.1322 2.54684 1.11022e-016 5.96046e-008 7.44855e-007 9.67283e-006 6.06915e-007 0.948626 0.783529 0.204366 81.1524 2.8556 -15.3266 2.98415 -1.49012e-008 0 2.15466e-007 2.00817e-008 1.24716e-006 0.945015 0.361086 0.455508 84.7269 9.18899 -52.8833 2.53654 0 0 -3.0185e-007 -6.00734e-008 1.48873e-006 -2.48034 0.707474 2.37993 -159.692 1.67436 -174.686 7.16876 -1.77636e-015 0 -96.3872 1.93185e-005 -1.53794e-005 5.71658 0 2.38419e-007 86.7347 4.16214e-006 -9.65415e-006 4.09528 0 0 -42.3487 2.31069 -1.37324 0.688901 -0.165616 0.0515621 106.878 3.13916 -169.769 2.31698 -5.55112e-017 0 -180 -9.88651e-006 -1.61572e-006 0.917067 0.515958 0.245308 78.1917 4.23677 -22.1322 2.54684 -5.96047e-008 0 -180 -1.09068e-006 -1.39886e-007 0.948626 0.783529 -0.204366 81.1524 -2.8556 15.3266 2.98415 1.11022e-016 -2.38419e-007 -180 -8.93278e-006 3.56622e-007 0.945014 0.361087 -0.455508 84.7269 -9.18898 52.8833 2.53654 0 2.98023e-007 -180 -1.02994e-005 5.26966e-007 3.72689 -0.00328922 -5.0962e-006 3.72624 0.100354 0.47805 3.00123 -0.0843515 -4.58748 8.43921 1.3228 172.779 5.88015 0 -8.88178e-016 1.49625 -0.0919351 11.5728 3.00122 -0.0843687 4.58724 -167.528 0.802326 -8.26589 5.88015 -2.86102e-006 -2.38419e-006 -1.78851 0.268747 11.154 4.13959 -0.00252533 -0.000134677 -9.73216 2.99265 -6.32183 3.22065 -0.00264454 -0.000109226 13.8568 2.27848 -6.82618 3.42197 -0.00258827 -0.000106499 11.802 2.29103 -6.8586 3.32298 -9.53674e-007 5.96046e-008 39.3923 -1.77737 3.40159 1.65821 0.977863 2.3067e-005 -165.167 7.01671e-015 -180 4.48783 0 -1.19209e-007 -2.73835e-007 9.80456e-006 1.86578e-007 
-3.39553 12.9662 0.0106767 -102.73 -87.5119 -11.6523 9.53674e-007 -5.55112e-017 4.44089e-016 -89.9658 -12.7965 -89.9769 -1.93658 -0.0537062 -2.5034e-006 14.9707 0.0320026 -178.543 3.80098 0 3.33067e-016 -6.53183 -0.0825793 2.16056 4.13452 -9.53674e-007 8.88178e-016 -9.40796 -0.168277 1.4534 2.49328 -0.57574 -5.06639e-006 3.00715 0.134883 0.458013 -2.44137 0.694888 -2.42351 -146.406 -1.22787 175.931 7.16876 1.77636e-015 4.44089e-016 -110.053 -1.25482e-005 1.80956e-006 5.71658 -4.76837e-007 2.38419e-007 65.8776 4.22954e-006 -7.53176e-006 4.09528 2.66454e-015 -2.38419e-007 5.59864 -6.43163 2.96305 0.688901 -0.165616 -0.0515647 106.876 -3.13917 169.769 2.31699 -2.38419e-007 0 -3.33719e-007 -8.40209e-008 1.39871e-007 0.917067 0.515958 -0.245308 78.1891 -4.23679 22.1323 2.54684 -1.88738e-015 5.96046e-008 7.44855e-007 9.67283e-006 6.06915e-007 0.948626 0.783529 0.204366 81.1498 2.85559 -15.3266 2.98415 -1.49012e-008 4.44089e-016 2.15466e-007 2.00817e-008 1.24716e-006 0.945015 0.361086 0.455508 84.7243 9.18901 -52.8833 2.53654 2.55351e-015 1.77636e-015 -3.0185e-007 -6.00734e-008 1.48873e-006 -2.48034 0.707474 2.37993 -159.894 1.66533 -174.63 7.16876 5.32907e-015 8.88178e-016 -96.4379 -5.15026e-006 -1.81269e-005 5.71658 0 2.38419e-007 86.3811 -1.62482e-005 -1.09278e-005 4.09528 2.22045e-016 -4.44089e-016 -42.1831 2.34489 -1.40905 0.688901 -0.165616 0.0515621 106.878 3.1392 -169.769 2.31698 6.66134e-016 8.88178e-016 -180 -9.88651e-006 -1.60591e-006 0.917067 0.515958 0.245308 78.1916 4.23678 -22.1322 2.54684 -5.96047e-008 3.10862e-015 -180 -1.09068e-006 -1.49684e-007 0.948626 0.783529 -0.204366 81.1524 -2.8556 15.3266 2.98415 3.99681e-015 -2.38419e-007 -180 -8.93278e-006 -9.66129e-006 0.945014 0.361087 -0.455508 84.7269 -9.18898 52.8833 2.53654 3.77476e-015 2.98023e-007 -180 -1.02994e-005 5.1717e-007 3.72689 -0.00328922 -5.0962e-006 3.60783 0.101765 0.515696 3.00123 -0.0843515 -4.58748 8.25956 1.31213 172.549 5.88015 -1.06581e-014 -8.88178e-016 1.4836 -0.110862 11.5752 3.00122 -0.0843687 4.58724 -167.609 0.844995 -8.12218 5.88015 -2.86102e-006 -2.38419e-006 -1.68947 0.236626 11.1872 4.13959 -0.00252533 -0.000134677 -9.4252 5.59771 -6.30171 3.22065 -0.00264454 -0.000109226 14.3255 5.23635 -6.75684 3.42197 -0.00258827 -0.000106499 19.9946 4.32067 -7.20083 3.32298 -9.53674e-007 5.96046e-008 28.648 14.9473 9.97479 1.65821 0.977863 2.30729e-005 -165.164 -6.10352e-005 -180 4.48783 0 -1.19209e-007 -2.73835e-007 9.80456e-006 1.86578e-007 
-3.42131 12.9621 0.0230962 -102.73 -87.5119 -11.6523 9.53674e-007 0 4.44089e-016 -89.9281 -12.6391 -89.9515 -1.93658 -0.0537062 -2.5034e-006 13.3259 -0.000244125 -179.431 3.80098 1.77636e-015 -5.55112e-017 -4.45013 0.032482 1.69324 4.13452 -9.53674e-007 1.11022e-016 -9.46661 -0.352559 2.54839 2.49328 -0.57574 -5.06639e-006 3.19039 0.132212 0.445915 -2.44137 0.694888 -2.42351 -146.65 -1.2337 175.963 7.16876 -4.44089e-015 8.88178e-016 -110.15 1.30935e-005 1.11948e-005 5.71658 -4.76837e-007 2.38419e-007 65.7651 4.43985e-006 -7.44694e-006 4.09528 8.88179e-016 -2.38419e-007 5.59153 -6.43859 2.88928 0.688901 -0.165616 -0.0515647 106.869 -3.13907 169.769 2.31699 -2.38419e-007 4.44089e-016 -3.33719e-007 -8.40209e-008 1.39871e-007 0.917067 0.515958 -0.245308 78.182 -4.23682 22.1323 2.54684 -1.27676e-015 5.96046e-008 7.44855e-007 9.67283e-006 6.06915e-007 0.948626 0.783529 0.204366 81.1427 2.85558 -15.3265 2.98415 -1.49012e-008 1.33227e-015 2.15466e-007 2.00817e-008 1.24716e-006 0.945015 0.361086 0.455508 84.7172 9.189 -52.8833 2.53654 0 2.66454e-015 -3.0185e-007 -6.00734e-008 1.48873e-006 -2.48034 0.707474 2.37993 -160.176 1.66514 -174.575 7.16876 -5.32907e-015 4.44089e-016 -96.4841 3.995e-007 -1.75038e-005 5.71658 0 2.38419e-007 85.9876 4.15968e-006 -9.61889e-006 4.09528 1.11022e-015 0 -41.9996 2.38383 -1.45116 0.688901 -0.165616 0.0515621 106.878 3.13919 -169.769 2.31698 2.44249e-015 0 -180 -9.88651e-006 -1.06336e-005 0.917067 0.515958 0.245308 78.1917 4.23677 -22.1322 2.54684 -5.96047e-008 1.77636e-015 -180 -1.09068e-006 -1.13989e-006 0.948626 0.783529 -0.204366 81.1524 -2.8556 15.3266 2.98415 8.54872e-015 -2.38419e-007 -180 -8.93278e-006 -9.66129e-006 0.945014 0.361087 -0.455508 84.7268 -9.18897 52.8833 2.53654 3.10863e-015 2.98023e-007 -180 -1.02994e-005 -4.73033e-007 3.72689 -0.00328922 -5.0962e-006 3.55393 0.116426 0.583614 3.00123 -0.0843515 -4.58748 8.12556 1.30056 172.344 5.88015 -3.55271e-015 -8.88178e-016 1.48634 -0.122769 11.5522 3.00122 -0.0843687 4.58724 -167.684 0.891448 -7.95605 5.88015 -2.86102e-006 -2.38419e-006 -1.58304 0.204106 11.245 4.13959 -0.00252533 -0.000134677 -9.26223 7.00451 -6.29719 3.22065 -0.00264454 -0.000109226 14.5818 6.83852 -6.72766 3.42197 -0.00258827 -0.000106499 24.4304 5.3975 -7.03306 3.32298 -9.53674e-007 5.96046e-008 21.0103 23.2809 13.6128 1.65821 0.977863 2.30848e-005 -165.155 -0.00743103 -179.999 4.48783 -5.32907e-015 -1.19209e-007 -2.73835e-007 9.80456e-006 1.86578e-007 
-3.44858 12.958 0.0366116 -102.731 -87.512 -11.653 9.53674e-007 -5.55112e-017 0 -89.888 -12.4711 -89.9245 -1.93658 -0.0537062 -2.5034e-006 12.947 -0.00428763 -179.633 3.80098 -5.32907e-015 -1.66533e-016 -3.02239 0.10805 1.05931 4.13452 -9.53674e-007 5.55112e-016 -7.61571 -0.221906 2.19914 2.49328 -0.57574 -5.06639e-006 3.41451 0.13544 0.431084 -2.44137 0.694888 -2.42351 -146.934 -1.2223 175.989 7.16876 -5.32907e-015 1.33227e-015 -110.247 -1.256e-005 1.75677e-006 5.71658 -4.76837e-007 2.38419e-007 65.648 1.25549e-005 -3.78062e-006 4.09528 -1.77636e-015 -2.38419e-007 5.58454 -6.44538 2.80966 0.688901 -0.165616 -0.0515647 106.857 -3.13913 169.769 2.31699 -2.38419e-007 4.44089e-016 -3.33722e-007 -8.40209e-008 1.39871e-007 0.917067 0.515958 -0.245308 78.1704 -4.23686 22.1324 2.54684 -4.38538e-015 5.96046e-008 7.44855e-007 9.67283e-006 6.06915e-007 0.948626 0.783529 0.204366 81.1312 2.85555 -15.3264 2.98415 -1.49012e-008 1.33227e-015 2.15466e-007 2.00817e-008 1.24716e-006 0.945015 0.361086 0.455508 84.7057 9.18897 -52.8833 2.53654 3.10862e-015 2.66454e-015 -3.0185e-007 -6.00734e-008 1.48873e-006 -2.48034 0.707474 2.37993 -160.502 1.67016 -174.52 7.16876 1.77636e-015 -4.44089e-016 -96.5275 2.99673e-007 -1.75181e-005 5.71658 1.77636e-015 2.38419e-007 85.5655 4.17735e-006 -9.59883e-006 4.09528 0 -4.44089e-016 -41.8038 2.42604 -1.49697 0.688901 -0.165616 0.0515621 106.878 3.13919 -169.769 2.31698 -1.27676e-015 2.22045e-015 -180 -9.88651e-006 -6.15723e-007 0.917067 0.515958 0.245308 78.1916 4.2368 -22.1322 2.54684 -5.96047e-008 1.77636e-015 -180 -1.09068e-006 -1.13989e-006 0.948626 0.783529 -0.204366 81.1524 -2.8556 15.3266 2.98415 0 -2.38419e-007 -180 -8.93278e-006 -9.66129e-006 0.945014 0.361087 -0.455508 84.7269 -9.18899 52.8833 2.53654 -1.55431e-015 2.98023e-007 -180 -1.02994e-005 -4.7304e-007 3.72689 -0.00328922 -5.0962e-006 3.53002 0.137777 0.667526 3.00123 -0.0843515 -4.58748 8.11913 1.29856 172.323 5.88015 -1.77636e-015 2.66454e-015 1.52679 -0.113023 11.4571 3.00122 -0.0843687 4.58724 -167.7 0.896831 -7.94144 5.88015 -2.86102e-006 -2.38419e-006 -1.59987 0.207879 11.313 4.13959 -0.00252533 -0.000134677 -9.32649 7.31329 -6.31505 3.22065 -0.00264454 -0.000109226 14.7599 7.3457 -6.66533 3.42197 -0.00258827 -0.000106499 25.3065 5.83667 -6.02106 3.32298 -9.53674e-007 5.96046e-008 19.3288 24.6489 13.5467 1.65821 0.977863 2.30895e-005 -165.142 -0.00559998 -179.999 4.48783 -1.24345e-014 -1.19209e-007 -2.73835e-007 9.80456e-006 1.86578e-007 
